{"title":"Hitchcock 2012 BluRay 1080p DTS x264 - alrmothe","uid":8283635,"size":6510994420,"categoryP":"video","categoryS":"hd___movies","magnet":"?xt=urn:btih:15ddfffd3f1e3aafc2b43905bd061591ca455d8e&amp;dn=Hitchcock+2012+BluRay+1080p+DTS+x264+-+alrmothe&amp;tr=udp%3A%2F%2Ftracker.openbittorrent.com%3A80&amp;tr=udp%3A%2F%2Fopen.demonii.com%3A1337&amp;tr=udp%3A%2F%2Ftracker.coppersurfer.tk%3A6969&amp;tr=udp%3A%2F%2Fexodus.desync.com%3A6969","seeders":1,"leechers":0,"uploader":".alrmothe","files":36,"time":1363895254,"description":"*************************************************************\n\nHitchcock 2012 BluRay 1080p DTS x264 - alrmothe\n\n*************************************************************\n\nTiTLE : Hitchcock \nYEAR: 2012\nGENRE : Biography | Drama \nimdb URL :http://www.imdb.com/title/tt0975645/\nFormat: Matroska\nFormat version: Version 4 / Version 2\nFile size:  6.05 GiB\nDuration:  1h 38mn\nSub:English,Arabic,swedish,Dutch,italian,portuguese,spanish\n \n*************************************************************\n\nVideo\nFormat : AVC \nFormat/Info : Advanced Video Codec \nFormat profile : &lt;a class=&quot;__cf_email__&quot; href=&quot;/cdn-cgi/l/email-protection&quot; data-cfemail=&quot;d39bbab4bb939fe7fde2&quot;&gt;[email&amp;#160;protected]&lt;/a&gt;&lt;script cf-hash='f9e31' type=&quot;text/javascript&quot;&gt;\n/* &lt;![CDATA[ */!function(){try{var t=&quot;currentScript&quot;in document?document.currentScript:function(){for(var t=document.getElementsByTagName(&quot;script&quot;),e=t.length;e--;)if(t[e].getAttribute(&quot;cf-hash&quot;))return t[e]}();if(t&amp;&amp;t.previousSibling){var e,r,n,i,c=t.previousSibling,a=c.getAttribute(&quot;data-cfemail&quot;);if(a){for(e=&quot;&quot;,r=parseInt(a.substr(0,2),16),n=2;a.length-n;n+=2)i=parseInt(a.substr(n,2),16)^r,e+=String.fromCharCode(i);e=document.createTextNode(e),c.parentNode.replaceChild(e,c)}}}catch(u){}}();/* ]]&gt; */&lt;/script&gt; \nFormat settings, CABAC : Yes \nFormat settings, ReFrames : 9 frames  \nCodec ID : V_MPEG4/ISO/AVC  \nBit rate : 7292 Kbps \nWidth : 1920 pixels \nHeight : 800 pixels \nDisplay aspect ratio : 16:9 \nFrame rate : 23.976 fps \nColor space : YUV \nChroma subsampling : 4:2:0 \nBit depth : 8 bits \nScan type : Progressive \nBits/(Pixel*Frame) : 0.198 \nStream size: 4.89 GiB (81%)\nTitle:Hitchcock 2012 BluRay 1080p DTS x264 - alrmothe\n\n\nAudio \nFormat: DTS\nFormat/Info: Digital Theater Systems\nMode: 16\nFormat settings, Endianness: Big\nCodec ID: A_DTS\nBit rate mode: Constant\nBit rate : 1510 Kbps\nChannel(s) : 6 channels\nChannel positions: Front: L C R, Side: L R, LFE\nSampling rate: 48.0 KHz\nBit depth: 24 bits\nCompression mode: Lossy\nStream size: 1.04 GiB (17%)\nLanguage : English\n\n\n\n\n*************************************************************\n\nScreenshots &lt;a href=&quot;\nhttp://img138.imageshack.us/img138/5649/61991726.png&quot; rel=&quot;nofollow&quot; target=&quot;_NEW&quot;&gt;\nhttp://img138.imageshack.us/img138/5649/61991726.png&lt;/a&gt; &lt;a href=&quot;\nhttp://img23.imageshack.us/img23/2663/34321674.png&quot; rel=&quot;nofollow&quot; target=&quot;_NEW&quot;&gt;\nhttp://img23.imageshack.us/img23/2663/34321674.png&lt;/a&gt; &lt;a href=&quot;\nhttp://img534.imageshack.us/img534/8320/41379402.png&quot; rel=&quot;nofollow&quot; target=&quot;_NEW&quot;&gt;\nhttp://img534.imageshack.us/img534/8320/41379402.png&lt;/a&gt; &lt;a href=&quot;\nhttp://img850.imageshack.us/img850/6757/58899454.png&quot; rel=&quot;nofollow&quot; target=&quot;_NEW&quot;&gt;\nhttp://img850.imageshack.us/img850/6757/58899454.png&lt;/a&gt; &lt;a href=&quot;\nhttp://img819.imageshack.us/img819/5664/44451073.png&quot; rel=&quot;nofollow&quot; target=&quot;_NEW&quot;&gt;\nhttp://img819.imageshack.us/img819/5664/44451073.png&lt;/a&gt; &lt;a href=&quot;\nhttp://img268.imageshack.us/img268/8059/11293709.png&quot; rel=&quot;nofollow&quot; target=&quot;_NEW&quot;&gt;\nhttp://img268.imageshack.us/img268/8059/11293709.png&lt;/a&gt; &lt;a href=&quot;\nhttp://img268.imageshack.us/img268/9527/35735930.png&quot; rel=&quot;nofollow&quot; target=&quot;_NEW&quot;&gt;\nhttp://img268.imageshack.us/img268/9527/35735930.png&lt;/a&gt; &lt;a href=&quot;\nhttp://img687.imageshack.us/img687/3291/hitchcock2012bluray1080.jpg&quot; rel=&quot;nofollow&quot; target=&quot;_NEW&quot;&gt;\nhttp://img687.imageshack.us/img687/3291/hitchcock2012bluray1080.jpg&lt;/a&gt;","torrent":{"xt":"urn:btih:15ddfffd3f1e3aafc2b43905bd061591ca455d8e","amp;dn":"Hitchcock+2012+BluRay+1080p+DTS+x264+-+alrmothe","amp;tr":["udp%3A%2F%2Ftracker.openbittorrent.com%3A80","udp%3A%2F%2Fopen.demonii.com%3A1337","udp%3A%2F%2Ftracker.coppersurfer.tk%3A6969","udp%3A%2F%2Fexodus.desync.com%3A6969"],"infoHash":"15ddfffd3f1e3aafc2b43905bd061591ca455d8e","infoHashBuffer":{"type":"Buffer","data":[21,221,255,253,63,30,58,175,194,180,57,5,189,6,21,145,202,69,93,142]},"announce":[],"urlList":[]}}